<svg xmlns="http://www.w3.org/2000/svg" width="442" height="429.724" viewBox="0 0 442 429.724">
  <g id="Grupo_1706" data-name="Grupo 1706" transform="translate(-498.003 -38.922)">
    <path id="Caminho_3880" data-name="Caminho 3880" d="M546.639,102.518a20.828,20.828,0,0,0-16.872,16.222c-1.032,4.867-.575,26.048-.575,32.513v16.5c0,9.907,1.9,17.215,10.747,22.33,3.854,2.229,9.279,2.781,14.294,2.031,8.842-1.316,14.738-7.893,16.685-16.336,1.049-4.535.647-10.967.647-15.862v-33c0-5.458-.382-9.514-2.758-13.756a21,21,0,0,0-22.168-10.643M548.728,108a15.059,15.059,0,0,1,16.342,10.964c1.138,3.93.806,8.811.806,13.109,0,6.072.318,37.7-.209,40.973-1.227,7.662-5.712,12.919-13.756,13.578-9.051.736-14.308-3.788-16.35-10.925-1.1-3.841-.694-8.914-.694-13.1,0-6.451-.29-36.984.212-40.822,1-7.67,5.86-13,13.65-13.773" transform="translate(55.623 113.242)" fill="#3b1a0e" fill-rule="evenodd"/>
    <path id="Caminho_3881" data-name="Caminho 3881" d="M600.545,137.937a42.27,42.27,0,0,1,2.566,4.942c.876,1.738,1.732,3.42,2.65,5.185,1.913,3.673,2.859,7.706,7.9,7.846,5.352.148,6.331-3.777,8.234-7.525.806-1.59,4.747-9.69,5.394-10.323.315,5.888.034,19.859.034,26.639v13.2c0,4.563-.689,8.632,2.148,11.215a6.86,6.86,0,0,0,9.475-.17c2.745-2.862,1.991-6.778,1.991-11.458v-66.41c0-2.379-.011-3.813-1.138-5.509a6.8,6.8,0,0,0-9.4-1.888c-1.487.957-1.88,1.827-2.862,3.74-1.554,3.029-2.943,5.815-4.527,8.878-1.21,2.34-8.373,16.992-9.179,17.666L600.4,107.638c-.965-1.885-1.152-2.661-2.784-3.816a6.682,6.682,0,0,0-9.427,1.584c-1.211,1.632-1.283,2.864-1.278,5.258v66.823c0,4.421-.719,8.579,1.833,11.307a6.814,6.814,0,0,0,11.731-4.081c.22-3.082.022-16.3.022-20.012,0-4.976-.254-23.4.047-26.765m-7.941-28.1c0-1.411.929-2.042,1.863-1.236a10.861,10.861,0,0,1,1.4,2.53l7.709,15.184c1.785,3.436,8.646,17.51,10.267,20.216,1.4-1.277,18.551-37.168,19.588-37.983.438-.34,1.78-.756,1.78,1.289v73.834c0,1.6-.711,1.757-2.011,1.3-.466-1.883-.164-30.8-.164-35.33,0-3.632.2-32.65-.045-35.436a34.326,34.326,0,0,0-2.377,4.538c-.792,1.548-1.584,3.057-2.385,4.63-1.629,3.208-3.074,6.108-4.728,9.293s-3.129,6.139-4.73,9.3c-.814,1.6-1.556,3.018-2.385,4.627-.588,1.149-1.478,4.03-2.875,3.492-.848-.4-2.1-3.509-2.53-4.359-.772-1.517-1.562-3-2.312-4.493-.909-1.807-12.869-26.026-13.862-26.79l-.017,69.793c-.19,1.185-2.19,1.766-2.19-.561Z" transform="translate(158.904 113.82)" fill="#3b1a0e" fill-rule="evenodd"/>
    <path id="Caminho_3882" data-name="Caminho 3882" d="M580.779,158.086l6.792-.039a45.694,45.694,0,0,0,1.972,4.672l6.147,14.063c1.361,3.143,2.683,6.242,4.072,9.333,4.1,9.123,15.55,3.408,13.084-4.005l-8.114-18.7c-.9-2.005-3.662-7.706-4.025-9.531,2.257-1.439,5.188-5.609,6.488-8.345,7.221-15.215,2.323-36.373-11.265-41.8-3.944-1.573-9.165-1.074-13.717-1.074-5.782,0-14.877-1.615-15.059,7.16-.053,2.524,0,5.107,0,7.637v59.6c0,5.422-.89,9.268,2.574,12.278,3.528,3.062,8.507,1.057,10.259-2.131,1.358-2.48.789-10.691.789-14.066,0-5.015-.025-10.038,0-15.056m-7.9-48.052c0-1.369.114-1.654,1.492-1.654H590.46c4.906,0,9,4.563,10.627,7.525a29.5,29.5,0,0,1,.519,27.956l-2.491,3.7c-2.449,2.837-4.945,3.62-5.676,4.334.99,2.666,2.449,5.751,3.648,8.429l7.349,16.78c.622,1.414,1.2,2.742,1.813,4.17.4.934,2.178,3.732.073,3.782-1.155.025-1.969-2.7-2.4-3.721-.6-1.411-1.191-2.772-1.816-4.164-1.364-3.032-10.292-23.956-11.026-24.832l-15.965.084c-.3,4.231.485,31.029-.31,32.265-1.063.976-1.922.312-1.922-1.236Z" transform="translate(123.538 113.833)" fill="#3b1a0e" fill-rule="evenodd"/>
    <path id="Caminho_3883" data-name="Caminho 3883" d="M552.689,144.522c-4.161-.075-8.381-.011-12.551-.011-4.4,0-8.15-.678-10.786,1.977a6.853,6.853,0,0,0-.5,9.087c2.312,2.965,5.587,2.549,10.233,2.549.273,3.668.092,8.588.045,12.359-.086,6.7-4.2,9.344-10,8.309-6-1.074-5.2-9.068-5.2-13.265V128.4c0-4.63-.36-6.951,2.008-10.281,1.621-2.282,5.935-3.219,9.173-1.4,2.934,1.646,3.263,4.638,3.57,8.8.583,7.877,11.926,8.351,13.432,1.029.591-2.862-.3-8.242-1.238-10.741a28.375,28.375,0,0,0-4.758-7.623c-3.816-4.647-11.924-6.778-18.528-5.734-7.294,1.149-11.447,5.4-14.364,10.384-3.749,6.407-2.915,13.527-2.915,21.753v24.748c0,8.524-.817,14.891,2.446,22.224,5.447,12.244,23.083,14.679,33.166,5.631,4.256-3.821,6.755-9.888,6.783-17.954s.271-16.7-.02-24.717m-5.654,5.665c0,5.057.377,20.495-.5,24.416-1.464,6.518-5.472,11.112-12.454,12.066-8.37,1.138-14.06-2.647-16.445-8.125-1.673-3.846-1.607-6.27-1.59-10.749l0-36.917c0-9.4-.276-13.99,5.219-19.29,5.718-5.514,19.555-5.81,24.079,5.843.63,1.62,1.648,6.658,1.129,8.019a1.041,1.041,0,0,1-1.8.268c-.561-.764-.429-3.654-.669-4.887-2.435-12.534-16.866-13.633-22.731-5.935-3.936,5.168-3.023,11.809-3.023,19.075v21.861c0,5.93-.667,15.968,1.1,21,1.858,5.294,6.507,8.471,13.837,7.718,6.345-.653,10.217-4.722,11.316-10.774.435-2.4.569-18.813.268-21.329-2.784-.254-9.492.379-11.589-.259l.112-1.757c1.634-.524,11.187-.243,13.75-.243" transform="translate(21.863 113.201)" fill="#3b1a0e" fill-rule="evenodd"/>
    <path id="Caminho_3884" data-name="Caminho 3884" d="M552.772,103.088c-3.6,1-5.043,3.512-5.035,7.877l0,51.56c0,4.039-.279,8.708.474,12.54,2.259,11.53,10.641,17.53,21.822,16.992,10.632-.51,18.369-7.506,19.887-19.089.471-3.612.176-46.894.176-51.691,0-3.336.371-9.8-.078-12.772a6.8,6.8,0,0,0-13.491,1.219c-.092,4.29,0,8.7,0,13v38.772c0,8.691,1.568,17.5-8.775,16.955-8.426-.443-6.432-12.018-6.432-19.636V120.04c0-2.7.312-10.616-.321-12.627a6.78,6.78,0,0,0-8.233-4.326m1.356,5.52c2.017-.761,1.506,2.652,1.506,4.008v40.423c0,5.6-.647,17.708.773,22.285,1.852,5.963,6.211,9.483,14.021,8.775,6.912-.628,10.278-4.954,11.533-11.494.8-4.17-.1-61.863.315-63.23a1.127,1.127,0,0,1,1.891-.382c.427.469.268,1.7.262,2.385-.086,15.388,0,30.806,0,46.2,0,7.322.848,14.981-2.036,21.016-2.346,4.906-7.522,8.264-15.251,7.732-7.076-.491-10.987-4.6-12.861-10.317-1.5-4.591-.848-16.47-.848-22.146v-40.42c0-1.386-.488-4.385.695-4.834" transform="translate(88.897 114.345)" fill="#3b1a0e" fill-rule="evenodd"/>
    <path id="Caminho_3885" data-name="Caminho 3885" d="M624.258,177.309c-.284-1.18-.128-16.615-.109-19.12,4.68,0,9.366.025,14.046.006,4.125-.017,7.151-2.753,7.171-6.769.019-4.133-3.015-6.792-7.176-6.859-4.633-.075-9.335,0-13.976,0l-.067-28.388c3.021,0,21.075.374,23.178-.368a6.676,6.676,0,0,0,4.072-3.975,6.79,6.79,0,0,0-5.81-9.229c-4.87-.318-10.864-.014-15.856-.014-3.127,0-12.883-.443-15.1.524-4.655,2.039-4.075,6.039-4.075,11.8,0,7.282-.31,68.973.181,70.959a7.025,7.025,0,0,0,3.631,4.418c2.432,1.144,11.762.63,15.154.63,5.1,0,10.841.248,15.859-.008,7.3-.379,8.841-10.345,2.276-13.081-1.877-.781-5.369-.53-7.617-.53q-7.89,0-15.784,0m-8.027-67.336c0-1.439.089-1.685,1.539-1.685,4.834,0,24.932-.374,28.115.19.463,1.434.12,2-1.5,2.025-7.525.12-19.633-.416-25.934.014l.064,39.748c4.142.318,18.514-.572,20.98.254a2.721,2.721,0,0,1-.059,1.752c-2.326.711-16.8-.173-20.961.276l-.02,30.41c4.691.745,25.446-.82,27.568.466l-.05,1.417c-.625.393-.583.4-1.6.4h-26.6c-1.344,0-1.539-.276-1.539-1.634Z" transform="translate(201.205 113.688)" fill="#3b1a0e" fill-rule="evenodd"/>
    <path id="Caminho_3886" data-name="Caminho 3886" d="M542.651,105.306c-6.9,1.241-10.624,6.683-10.649,14.671l0,37.74c0,3.894-.368,8.443.547,12.055,1.743,6.878,7.026,10.844,15.555,9.383,6.711-1.152,10.607-6.886,10.507-14.629-.162-12.378-.019-25.27-.019-37.743,0-3.687.3-8.582-.591-11.943a13.051,13.051,0,0,0-15.352-9.533m1.721,5.495a6.926,6.926,0,0,1,6.794,2.823c1.643,2.206,1.738,4.806,1.735,8V160.6c0,6.156-.1,12.487-6.429,13.042-7.729.675-8.75-4.016-8.75-10.978V123.689c0-6.549-.006-12.136,6.649-12.889" transform="translate(60.704 118.328)" fill="#3b1a0e" fill-rule="evenodd"/>
    <path id="Caminho_3887" data-name="Caminho 3887" d="M645.209,116.3c.237,3.093.033,15.943.033,20.082v40.423c0,2.393-.31,7.888.471,9.734a6.852,6.852,0,0,0,12.518.271c.976-2.237.6-6.872.6-9.592V126.485c0-3.135-.221-7.171.039-10.2,3.35-.455,10.4.583,13.048-.555a6.905,6.905,0,0,0,3.64-9.143c-1.983-4.477-6.036-3.975-9.8-3.975H638.125c-2.092,0-4.384-.259-6.256.494a6.777,6.777,0,0,0-3.573,3.447,6.935,6.935,0,0,0,3.656,9.193c2.9,1.194,9.824-.028,13.257.552M633.6,110.216c-.538-2.368.937-1.888,2.878-1.883H667.2c1.98,0,3.609-.558,3.046,1.821-1.339.817-14.342.354-17.111.354,0,7.528.374,72.83-.282,74.39-2.315.421-1.93-.706-1.919-2.728V110.509c-2.932,0-15.8.357-17.34-.293" transform="translate(231.999 113.881)" fill="#3b1a0e" fill-rule="evenodd"/>
    <path id="Caminho_3888" data-name="Caminho 3888" d="M569.931,145.043c3.141.36,8.351.05,11.664.05,4.917,0,6.25.176,9.321-2.544,8.939-7.916,8.507-27.359.112-34.429-3.227-2.717-4.1-2.625-9.227-2.625-3.47,0-8.532-.3-11.809.042Zm5.693-5.7.059-28.1c2.44-.128,5.1-.02,7.564-.028,1.389,0,2.307-.156,3.277.588,7.866,6.036,6.192,23.077-.231,27.158-1.177.75-9.059.457-10.668.379" transform="translate(128.69 118.894)" fill="#3b1a0e" fill-rule="evenodd"/>
    <path id="Caminho_3889" data-name="Caminho 3889" d="M503.064,136.936c.067,1.548,2,6.953,2.583,8.722,8.072,24.483,22.227,50.247,38.546,69.52,4.987,5.888,8.406,9.625,13.58,15.084,1.885,1.991,3.891,3.5,5.793,5.55,1.576,1.7,4.228,3.707,5.983,5.358,1.991,1.874,4.159,3.528,6.289,5.26A214.977,214.977,0,0,0,633.725,279.7c60.374,22.846,129.768,18.018,185.2-14.568,10.022-5.893,25.309-16.213,33.375-23.75l8.872-8.044c1.534-1.409,9.7-9.837,11.187-11.7.845-1.063,1.766-1.964,2.7-3.074a224.2,224.2,0,0,0,14.852-19.39c6.97-10.1,11.048-17.973,16.64-28.94a207.113,207.113,0,0,0,9.834-24.391c.614-1.894,2.56-7.224,2.644-8.9l-1.247-.315c-.675.973-2.187,6.817-2.753,8.465-7.891,22.93-16.877,40.066-30.935,59.613l-13.99,17.153a241.2,241.2,0,0,1-18.659,18.252c-2.1,1.713-4.008,3.4-6.2,5.143-33.174,26.355-78.029,47.061-134.116,47.059-56.123,0-100.886-20.55-134.189-46.98l-10.588-9.015c-.535-.474-.931-.971-1.45-1.428-2.028-1.785-3.874-3.676-5.776-5.57-.968-.962-1.754-1.721-2.809-2.761-2.19-2.164-6.1-6.872-8.108-9.012-1.793-1.911-3.4-4.042-5.135-6.206a220.717,220.717,0,0,1-18.3-26.871,213.507,213.507,0,0,1-17.614-39.1,71.82,71.82,0,0,1-2.641-8.736Z" transform="translate(9.055 174.807)" fill="#3b1a0e" fill-rule="evenodd"/>
    <path id="Caminho_3890" data-name="Caminho 3890" d="M503.054,195.818l1.367.343c.993-2.728,1.735-5.69,2.658-8.485,13.062-39.525,37.472-73.765,69.079-99.626,36.228-29.64,84.74-47.622,132.516-47.622h4.951c26.277,0,53.568,5.969,75.463,14.545a215.732,215.732,0,0,1,56.851,33.071l17.636,15.982c.954.965,1.568,1.573,2.784,2.781,1.026,1.018,1.7,2.022,2.761,3.018a12.022,12.022,0,0,1,1.266,1.42l9.084,10.71c3.327,4.039,6.424,8.471,9.517,12.967A214.577,214.577,0,0,1,915,187.486c.6,1.777,2.095,7.553,2.806,8.621l1.266-.3c-.349-2.407-1.86-6.273-2.644-8.727a224.506,224.506,0,0,0-9.754-24.266c-5.592-12.063-17.31-31.417-26.218-42.049-1.863-2.22-3.241-4.078-5.143-6.2l-13.767-14.7c-.544-.51-.943-.876-1.5-1.386-.519-.477-.893-.985-1.42-1.464-3.935-3.587-7.924-7.029-12.294-10.6a214.519,214.519,0,0,0-135.586-47.5c-26.575,0-54.706,5.294-76.944,14.155-16.28,6.485-30.9,13.884-44.766,23.51-4.663,3.241-8.908,6.421-13.134,9.756-5.888,4.641-9.7,8.312-14.983,13.271l-11.254,11.634c-.884.9-1.777,2.131-2.678,3.1-4.019,4.318-11.731,14.9-14.838,19.4a218.353,218.353,0,0,0-26.4,53.206c-.742,2.282-2.385,6.627-2.686,8.864" transform="translate(9.037 0)" fill="#3b1a0e" fill-rule="evenodd"/>
    <path id="Caminho_3891" data-name="Caminho 3891" d="M530.124,150.036l1.2.625,4.507-8.925a141.977,141.977,0,0,1,16.3-24.129l4.619-5.28a156.61,156.61,0,0,1,15.792-14.732c2.558-2.017,5.068-3.952,7.8-5.813C604.516,75.326,631.68,65.9,662.511,65.843,698.7,65.779,728.968,78.89,752.47,97.4c2.837,2.234,4.814,4.128,7.352,6.262l13.221,13.792A167.342,167.342,0,0,1,784.425,133.1c2.482,3.818,7.807,13.315,9.383,17.558l1.375-.536c-1.414-5.2-11.354-21.041-15.014-25.967-3.883-5.227-5.389-6.786-9.151-11.263-.99-1.18-2.3-2.527-3.247-3.565-2.3-2.513-4.435-4.237-6.875-6.733-1.542-1.581-5.464-4.658-7.36-6.253-2.357-1.983-5.1-3.969-7.776-5.835-37.02-25.819-84.087-33.545-129.843-18.411a143.271,143.271,0,0,0-44.1,24.165c-2.873,2.259-4.828,4.139-7.363,6.25-.647.541-1.038,1.063-1.662,1.634a145.246,145.246,0,0,0-23.136,28.011c-1.757,2.825-3.339,5.62-5.015,8.6a68.8,68.8,0,0,0-4.516,9.285" transform="translate(57.47 45.578)" fill="#3b1a0e" fill-rule="evenodd"/>
    <path id="Caminho_3892" data-name="Caminho 3892" d="M530.107,137.128c1.068,3.7,7.193,14.25,9.413,17.706a149.468,149.468,0,0,0,21.013,26.215c1.172,1.163,2.452,2.15,3.523,3.288,2.641,2.8,12.055,10.086,15.067,12.155,23.052,15.845,51.895,26.436,81.767,26.438,17.547,0,34.069-2.438,49.572-8.114a152.013,152.013,0,0,0,18.88-8.13,165.735,165.735,0,0,0,16.83-10.189,155.109,155.109,0,0,0,21.772-18.651c2.145-2.17,4.379-4.895,6.381-7.23A130.672,130.672,0,0,0,785.725,155c1.629-2.611,8.992-15.056,9.427-17.795l-1.222-.622c-1.512,2.862-3,6.142-4.446,8.978a146.585,146.585,0,0,1-16.213,24.006c-5.612,6.6-7.366,7.985-13.076,13.734a152.4,152.4,0,0,1-14.972,12.044c-24.907,16.944-51.733,26.1-83.507,26.1-35.369,0-66.421-13.647-89.181-31.774a154.735,154.735,0,0,1-15.608-14.5l-4.795-5.517c-6.5-7.606-11.238-15.109-16.228-23.992l-4.532-8.995Z" transform="translate(57.439 174.727)" fill="#3b1a0e" fill-rule="evenodd"/>
    <path id="Caminho_3893" data-name="Caminho 3893" d="M583.756,111.4c-.594-1.261-3.163-3.509-4.753-8.155-.837-2.449-1.816-9.333.536-10.434-1.141,4.795-.923,7.349,1.149,11.636,1.272,2.636,4.134,7.2,7.16,7.269-.669-2.343-1.676-3.47-1.936-6.56a11.523,11.523,0,0,1,.36-4.033c.312-1.152.728-2.421,1.626-2.823-.513,3.015-1.543,4.033-.639,7.614.388,1.542,1.846,5.009,2.834,5.924.257.114,14.043.6,15.714-.469,3.539-2.262,7.2-9.185,7.667-14.113a12.445,12.445,0,0,0-.148-3.818l.078-1.177c1.236,5.919,1.517,9.475-2.206,15.43-.424.675-.918,1.364-1.347,1.952a13.881,13.881,0,0,0-1.342,1.838c1.551-.092,3.01-.271,4.569-.477,2.31-.3,2.934-.142,3.911-1.439,4.167-5.542,10.178-15.51,7.213-22.852-3.634-9-11.706-4.306-14.342-6.7-.909-.823-1.528-1.768-2.5-2.65-5.609-5.046-11.929-7.269-19.016-2.644-2.641,1.727-3.587,3.124-5.55,4.97-2.348,2.206-4.435.22-8.97,1.554a8.176,8.176,0,0,0-5.486,5.026c-2.449,5.525.279,12.152,2.675,16.512a54.7,54.7,0,0,0,4.108,6.412c1.238,1.682,1.18,1.356,3.693,1.679,1.615.206,3.291.435,4.948.524" transform="translate(124.111 59.531)" fill="#3b1a0e" fill-rule="evenodd"/>
    <path id="Caminho_3894" data-name="Caminho 3894" d="M610.105,102.6c.3-1.107.262-14.066.095-15.767-12.512,1.191-22.361,1.891-35.026.318-1.244-.153-3.422-.647-4.468-.655-.307,4.488-.059,10.139-.045,14.743.006,1.936.773,1.715,4.981,2.36a96.667,96.667,0,0,0,21.306.851c2.273-.162,11.818-.985,13.156-1.849" transform="translate(129.804 85.112)" fill="#3b1a0e" fill-rule="evenodd"/>
    <path id="Caminho_3895" data-name="Caminho 3895" d="M572.238,153.018a6.913,6.913,0,0,0-2.033,2.229l4.343,4.044c2.9,2.438,6.047,5.584,9.112,8.008l4.7,3.994a50,50,0,0,1-4.307,4.39l-11,11.065c-1.088,1.051-1.565.831-1.364,3.026,2.15.6,1.782.689,3-.563.742-.767,1.57-1.453,2.329-2.212l13.617-13.8c1.492.778,23.931,18.743,25.125,19.134a3.466,3.466,0,0,0,.828-1.038c-.421-.672-7.7-6.9-9.093-8.239l-9.07-8.457c-.605-.591-.837-.912-1.45-1.436l-3.04-2.742c-.51-.421-1.244-.979-.413-1.754,1.7-1.59,13.739-5.6,16.545-6.783,4.767-2.014,11.293-6.482,8.345-13.664a8.725,8.725,0,0,0-5.986-5.57,8.908,8.908,0,0,0-8.808,2.474c-3.219,3.5-5.966,14-8.989,20.087-2.686,5.405-2.075,3.425-9.054-2.1Zm24.974,8.649c.508-1.8,1.749-4.538,2.479-6.437,1.364-3.548,3.325-8.895,6.608-10.922a6.781,6.781,0,0,1,5.277-.809,6.9,6.9,0,0,1,.812.223l.574.312c.022-.042.092.059.134.095-6.242,1.746-9.461,6.719-12.76,12.362-.867,1.487-2.067,4.111-3.124,5.177m-.4,2.48a23.99,23.99,0,0,1,1.838-3.157c3.646-5.827,9.709-17.792,16.916-15.708-.628,1.2-3.417,3.517-4.672,4.853-1.818,1.936-12.18,12.646-14.082,14.013m-.137,1.283,19.5-19.181c.41.3.128,0,.441.463,2.357,3.484-4.747,9.544-7.439,11.19Zm2.786-.731c2.845-2.719,14.916-5.818,18.353-15.689,1.169,2.036-.036,5.514-1.032,7.012a12.278,12.278,0,0,1-4.758,3.908c-2.131,1.085-10.4,4.362-12.562,4.769" transform="translate(129.181 184.98)" fill="#3b1a0e" fill-rule="evenodd"/>
    <path id="Caminho_3896" data-name="Caminho 3896" d="M506.884,123.312l-8.881.036c.388.588.206.3.767.764l6.337,5.135-2.722,9.768c1.233-.552,5.651-4.906,7.232-5.807l5.38,4.371a11.208,11.208,0,0,0,1.818,1.45l-2.711-9.737c1.456-.906,3.748-3.057,5.364-4.323a8.243,8.243,0,0,0,1.785-1.634c-10.113.05-8.624.784-9.45-2.145l-2.1-7.043c-.017-.033-.053-.1-.084-.148-.608.982-2.332,7.637-2.733,9.313" transform="translate(0 134.324)" fill="#3b1a0e" fill-rule="evenodd"/>
    <path id="Caminho_3897" data-name="Caminho 3897" d="M656.993,123.528l-8.861.006a9.85,9.85,0,0,0,1.637,1.47l5.4,4.527-2.639,9.65c1.587-.823,5.313-4.569,7.149-5.782,1.2.5,5.854,5.026,7.257,5.737l-2.68-9.575,7.146-5.994-8.836-.017L659.8,113.9Z" transform="translate(268.604 134.142)" fill="#3b1a0e" fill-rule="evenodd"/>
    <path id="Caminho_3898" data-name="Caminho 3898" d="M536.83,146.328c-1.81.851-17.575,12.01-17.909,12.47-1.138,1.559.627,3.191,1.35,4.276.8,1.2,1.565,2.3,2.446,3.537.784,1.091,1.593,2.929,3.475,2.15a30.37,30.37,0,0,0,3.576-2.415l10.839-7.517a24.817,24.817,0,0,0,3.436-2.544c1.18-1.47-.513-3.238-1.216-4.214-.867-1.208-1.629-2.318-2.466-3.517-.739-1.057-1.62-3.124-3.531-2.226m-14.211,14.3,7.547-5.227c1.459-.968,6.415-4.616,7.492-5.1.53.834,2.446,3.274,2.652,4.092a41.682,41.682,0,0,1-3.752,2.655l-11.112,7.642a25.162,25.162,0,0,1-2.828-4.067" transform="translate(36.759 191.772)" fill="#3b1a0e" fill-rule="evenodd"/>
    <path id="Caminho_3899" data-name="Caminho 3899" d="M595.2,174.027c-10.869,1.989-9.862-.075-8,10.487.516,2.94,1.026,5.762,1.559,8.73.265,1.484.491,2.917.781,4.387.363,1.849,1.1,2.382,3.185,2.019,10.956-1.911,9.885-.251,8.022-10.546-.541-2.987-1.043-5.813-1.573-8.755-.884-4.94-.5-6.959-3.972-6.323m-5.274,4.214,4.906-.834,3.185,18.012-4.923.753Z" transform="translate(157.496 241.52)" fill="#3b1a0e" fill-rule="evenodd"/>
    <path id="Caminho_3900" data-name="Caminho 3900" d="M564.376,172.821c-.742.365-.826.555-1.138,1.6l-4.055,15.109c-.371,1.35-.837,2.851-1.144,4.226-.494,2.206.53,2.569,2.3,3.049,10.334,2.809,8.908,3.941,11.555-6.309.736-2.848,1.52-5.79,2.318-8.6.39-1.378.817-2.839,1.141-4.22.494-2.114-.53-2.655-2.248-3.107-1.738-.457-7.43-2.385-8.727-1.746m-2.332,21.041c0-1.316,1.793-7.227,2.254-8.892.708-2.546,1.88-6.186,2.323-8.78l4.85,1.4-4.7,17.588Z" transform="translate(107.191 239.337)" fill="#3b1a0e" fill-rule="evenodd"/>
    <path id="Caminho_3901" data-name="Caminho 3901" d="M626.754,156.016c-1.277.418-5.3,4.772-6.546,5.944-2.653,2.493-.095,3.793,3.06,6.925l9.157,9.405c.719.717,2.164,2.8,3.788,2.36,1.007-.273,5.121-4.747,6.429-5.952a2.5,2.5,0,0,0,1.113-1.972c0-1.082-.6-1.389-1.149-1.933-4.7-4.661-8.9-9.285-13.806-14.041-.563-.547-1.082-1.052-2.044-.736m-3.392,7.637c.346-.728,2.569-2.7,3.2-3.556.837.363,6.024,5.762,6.688,6.432,1.063,1.077,5.854,5.807,6.3,6.633l-3.425,3.305c-1.163-.708-5.163-5.073-6.454-6.359-1.609-1.6-4.987-5.333-6.315-6.454" transform="translate(216.666 209.326)" fill="#3b1a0e" fill-rule="evenodd"/>
    <path id="Caminho_3902" data-name="Caminho 3902" d="M528.821,175.465a26.039,26.039,0,0,0,2.586,2.335l4.4-4.672c.594-.72,1.548-1.643,2.159-2.382l1.673-1.824c.457-.5.112-.262.681-.642l-5.171,9.9,1.386,1.269,9.327-6.089a14.485,14.485,0,0,1-2.092,2.574l-6.5,7.193a21.017,21.017,0,0,0,2.594,2.323c1.194-.784,5.665-6.2,7.221-7.857l2.058-2.273c.379-.432.739-.7,1.127-1.135l6.178-6.9a10.626,10.626,0,0,0-2.56-2.374c-4.008,2.22-8.072,5.14-12.1,7.43l6.273-12.819a16.965,16.965,0,0,0-2.63-2.29l-8.351,9.132c-2.89,2.957-5.589,6.108-8.259,9.1" transform="translate(55.138 211.675)" fill="#3b1a0e" fill-rule="evenodd"/>
    <path id="Caminho_3903" data-name="Caminho 3903" d="M629.628,152.646A66.929,66.929,0,0,0,635,157.139c1.846,1.512,3.824,3.026,5.559,4.56l-14.713-4.647c-.5.973-1.4,1.634-1.827,2.6a22.582,22.582,0,0,0,2.354,1.989c1.927,1.57,15.8,13.059,16.835,13.488a9.849,9.849,0,0,0,2.162-2.965,69.524,69.524,0,0,1-5.676-4.46c-1.861-1.526-3.662-2.954-5.553-4.488l14.827,4.792a12.112,12.112,0,0,0,2.061-2.625L636.693,153.8c-.778-.647-1.523-1.258-2.382-1.95a19.3,19.3,0,0,0-2.443-1.885,16.477,16.477,0,0,0-2.24,2.678" transform="translate(225.467 198.678)" fill="#3b1a0e" fill-rule="evenodd"/>
    <path id="Caminho_3904" data-name="Caminho 3904" d="M571.034,199.46a11.311,11.311,0,0,0,3.746.2l.58-8.736c2.12-.19,6.881,1.135,7.98-.48.561-.823,1.239-12.194,1.113-13.215-.206-1.64-1.3-1.752-2.976-1.844-2.831-.156-5.952-.519-8.772-.541Zm4.552-11.918.625-9.252,4.424.3-.644,9.319Z" transform="translate(130.664 243.178)" fill="#3b1a0e" fill-rule="evenodd"/>
    <path id="Caminho_3905" data-name="Caminho 3905" d="M546.958,190.265c-.209.828-.784,1.18-.539,2.176.176.711.809,1.074,1.082,1.743l-.5.993-1.682-.845.46-1.328-2.1-1.049a3.773,3.773,0,0,0-1.032,2.848c.547.72,4.7,3.5,5.871,2.6a6.855,6.855,0,0,0,1.5-3.007c-.05-1.453-1.57-1.509-.834-2.887,1.966.586,3.712,3.023,5.417.209a49.1,49.1,0,0,0,2.867-5.394,21.559,21.559,0,0,0-3.35-1.7l-2.337,4.429a22.929,22.929,0,0,1-4.072-2.293l8.683-15.881,4.133,2.181-2.245,4.2a9.979,9.979,0,0,0,3.289,1.824c3.344-6.794,5.023-6.323-.151-9.254-7.252-4.111-6.4-4.058-9.249.9l-7.02,12.777c-.418.8-1.046,1.749-1.386,2.533-1.18,2.717,1.7,3.068,3.2,4.231" transform="translate(79.807 228.911)" fill="#3b1a0e" fill-rule="evenodd"/>
    <path id="Caminho_3906" data-name="Caminho 3906" d="M523.264,167.991a16.87,16.87,0,0,0,2.41,2.778l8.052-6.9c1.47-1.42,7.536-6.348,7.963-7.062a16.476,16.476,0,0,1,3.143,3.339,56.6,56.6,0,0,1-5.754,5.029,15.638,15.638,0,0,1-2.237-2.547,4.963,4.963,0,0,0-2.477,2.5c-1.224,2.287-4.887,8.267-5.339,9.659a15.694,15.694,0,0,0,2.68,2.764l5.539-10.206c1.18.583,1.277,1.841,2.806,1.634.982-.134,2.114-1.487,2.772-1.989,1.768-1.347,3.344-3,5.1-4.387a2.119,2.119,0,0,0,.68-3.107l-6.638-7.6c-.443.2-16.846,14.216-18.7,16.1" transform="translate(45.196 202.11)" fill="#3b1a0e" fill-rule="evenodd"/>
    <path id="Caminho_3907" data-name="Caminho 3907" d="M578.727,175.48l1.283,24.706,3.718-.2L582.6,178.459a21.93,21.93,0,0,1,4.6-.095l.413,7.634-3.551.187c-.248,2.636,1.135,4.831,2,6.959.887,2.189,1.81,4.34,2.736,6.543l3.854-.178c-.5-2-4.5-9.913-4.415-10.992,3.319-.209,3.23-.948,3.032-4.12-.628-10.091.485-9.636-5.414-9.341-2.293.117-4.859.151-7.129.424" transform="translate(144.428 243.364)" fill="#3b1a0e" fill-rule="evenodd"/>
    <path id="Caminho_3908" data-name="Caminho 3908" d="M549.812,191.586l3.355,1.442,2.351-3.972,4.29,1.62-1.035,4.661,3.319,1.308c.452-.823,4.753-22.5,4.965-24.653a13.591,13.591,0,0,0-3.735-1.484c-.823,1.891-13.12,19.948-13.511,21.078m7.458-5.417,5.67-9.132-2.4,10.392Z" transform="translate(92.694 235.428)" fill="#3b1a0e" fill-rule="evenodd"/>
    <path id="Caminho_3909" data-name="Caminho 3909" d="M535.661,180.964c.879.377,1.888,1.339,2.892,1.916.427-.251.07.031.524-.385a24.068,24.068,0,0,1,2.982-2.806,38.977,38.977,0,0,0,3.553,2.421l-2.022,4.351a17.075,17.075,0,0,0,3.057,2.114l10.42-22.874a16.956,16.956,0,0,0-3.308-2.268L540.2,176.392c-1.149,1.314-3.815,3.146-4.541,4.571m8.677-3.74a72.111,72.111,0,0,1,7.45-7.433l-4.538,9.377a9.988,9.988,0,0,1-2.912-1.944" transform="translate(67.376 222.771)" fill="#3b1a0e" fill-rule="evenodd"/>
    <path id="Caminho_3910" data-name="Caminho 3910" d="M629.33,148.644c1.76,1.277,7.079,6.672,9.137,8.591l4.5,4.365a57.593,57.593,0,0,0,4.566,4.27l1.913-3.023c-.979-1.068-2.806-2.3-3.386-3.336a20.069,20.069,0,0,1,2.5-3.637l4.114,1.8a11.359,11.359,0,0,0,2.058-3.124c-3.732-1.339-21.853-9.176-23.543-9.344-.483,1.216-1.587,2.173-1.863,3.436m14.1,8.738-7.787-7.11a80.471,80.471,0,0,1,9.681,4.287,12.278,12.278,0,0,1-1.894,2.823" transform="translate(234.964 190.162)" fill="#3b1a0e" fill-rule="evenodd"/>
    <path id="Caminho_3911" data-name="Caminho 3911" d="M627.859,183.052l-3.537,2.36a29.761,29.761,0,0,1-2.806-4.058,15.657,15.657,0,0,0-3.121,2.075,46.706,46.706,0,0,0,2.767,4.228c1.35,2.125,2.181,2.29,4.32.812,1.411-.976,2.753-1.936,4.175-2.837,1.671-1.063,3.341-1.838,1.732-4.281-4.226-6.4-3.319-5.578-7.9-6.331-2.042-.337-3.969-.636-6.041-.971-1.406-.223-1.4-.608-1.988-1.52a25.441,25.441,0,0,1-1.45-2.3l3.5-2.491,2.669,3.749,3.026-2.084a37.093,37.093,0,0,0-2.823-4.279c-2.106-2.993-3.59-.558-8.722,2.725-1.872,1.2-2.6,1.955-1.063,4.173,3.983,5.754,2.2,4.912,8.142,5.9,6.262,1.035,5.793.1,7.67,2.831a11.478,11.478,0,0,1,1.442,2.3" transform="translate(199.976 223.372)" fill="#3b1a0e" fill-rule="evenodd"/>
    <path id="Caminho_3912" data-name="Caminho 3912" d="M619.963,187.877c-1.222.427-2.683,1.623-3.907,1.858l-2.307-4.27-3.266,1.612a38.748,38.748,0,0,0,2.3,4.694c1.729,3.325,3.3,1.718,9.109-1.356,2.351-1.241,2.842-1.57,1.495-4.3-3.071-6.231-2.46-5.483-7.374-6.859-1.849-.516-3.612-1.012-5.47-1.551-1.3-.377-1.138-.614-1.735-1.763a19.533,19.533,0,0,1-1.194-2.5c1.121-.455,2.772-1.668,3.9-1.869l2.1,3.91,3.28-1.6a41.44,41.44,0,0,0-2.323-4.742c-1.286-2.337-2.555-1.562-4.549-.5-6.29,3.339-7.67,3-5.763,6.686,3.166,6.114,1.777,4.834,7.528,6.49,1.651.474,3.969.987,5.464,1.554,1.063.4,2.362,3.512,2.711,4.5" transform="translate(188.69 230.267)" fill="#3b1a0e" fill-rule="evenodd"/>
    <path id="Caminho_3913" data-name="Caminho 3913" d="M514.65,152.282l1.671,3.288,9.494-5.177c.045.05.1.056.112.12l2.521,4.518,2.943-1.47-2.546-4.772,6.228-3.539a58.132,58.132,0,0,1,3.18,5.492l2.823-1.526a86.02,86.02,0,0,0-4.94-8.83Z" transform="translate(29.784 181.535)" fill="#3b1a0e" fill-rule="evenodd"/>
    <path id="Caminho_3914" data-name="Caminho 3914" d="M593.178,174.882l7.083,23.7,3.559-.985-3.106-10.56,5.164-1.49-.832-3.09-5.258,1.488-2.1-6.961,6.019-1.78-.84-3.179Z" transform="translate(170.283 238.133)" fill="#3b1a0e" fill-rule="evenodd"/>
    <path id="Caminho_3915" data-name="Caminho 3915" d="M632.36,143.47l21.951,11.466c.948-2.307,4-7.316,4.368-8.839l-2.92-1.406L653,150l-18.919-9.77a10.9,10.9,0,0,0-1.721,3.244" transform="translate(240.385 181.248)" fill="#3b1a0e" fill-rule="evenodd"/>
    <path id="Caminho_3916" data-name="Caminho 3916" d="M615.474,163.157c3.746,4.686,12.71,15.07,15.538,19.016a12.945,12.945,0,0,0,2.918-2.279,44.314,44.314,0,0,0-3.807-4.822c-1.422-1.665-10.861-13.511-11.834-14.283a16.1,16.1,0,0,0-2.814,2.368" transform="translate(210.174 218.039)" fill="#3b1a0e" fill-rule="evenodd"/>
    <path id="Caminho_3917" data-name="Caminho 3917" d="M599.216,171.819l9.16,22.981,3.472-1.306-9.164-22.917Z" transform="translate(181.087 235.551)" fill="#3b1a0e" fill-rule="evenodd"/>
    <path id="Caminho_3918" data-name="Caminho 3918" d="M565.17,142.678c.552.471,1.152.675,1.721,1.16,3.068,2.611,4.552,6.566,6.912,8.139,2.566,1.71,7.2.672,3.95-4.365a9.25,9.25,0,0,0-3.269-2.711c-2.321-1.45-6.03-2.881-9.313-2.223" transform="translate(120.172 185.34)" fill="#3b1a0e" fill-rule="evenodd"/>
    <path id="Caminho_3919" data-name="Caminho 3919" d="M554.073,171.868l2.315,1c.2-.767.056-.736.586-1.177.8.7,2.254,2.48,3.5,2.867,1.8.561,2.477-1.989,2.705-3.311l-2.312-.851-.5,1.183c-1.888-1.757-5.1-5.832-6.292.287" transform="translate(100.318 232.045)" fill="#3b1a0e" fill-rule="evenodd"/>
    <path id="Caminho_3920" data-name="Caminho 3920" d="M647.674,76.6c-1.537.413-15.43,10.077-17.864,11.734-4.184,2.839-7.472,3.676-4.373,8.211,1.032,1.509,1.994,2.94,3.007,4.415.926,1.353,1.832,3.347,4.365,2.736.572-.137,20.235-13.126,22.137-14.769,2.825-2.44-.4-5.684-3.046-9.564-.915-1.344-1.947-3.372-4.226-2.764M629.562,94.375,648.02,81.916l.789.954a22.6,22.6,0,0,1,1.927,3.049c-1.356,1.1-3.185,2.22-4.655,3.216l-9.235,6.234c-1.487,1.007-3.049,2.153-4.518,3.054a23.9,23.9,0,0,1-2.767-4.047" transform="translate(225.813 67.208)" fill="#3b1a0e" fill-rule="evenodd"/>
    <path id="Caminho_3921" data-name="Caminho 3921" d="M535.446,68.132c.753,1.328,3.021,3.311,3.821,4.237l6.652,7.26c-2.856-.971-13.173-7.129-15.078-7.425-.837,1.224-1.726,1.534-2.443,2.527.647,1.152,7.648,8.295,9.246,9.982l4.039,4.421c2.231,2.555,6.016,6.214,8.075,8.621a24.724,24.724,0,0,0,3.389-3.233c-1.788-2.047-10.008-10.518-10.83-11.675l15.187,7.7a29.677,29.677,0,0,0,2.678-2.382c-.457-1.11-15.268-16.425-18.746-20.227a32.112,32.112,0,0,0-2.672-2.831,22.825,22.825,0,0,0-3.316,3.029" transform="translate(54.381 46.842)" fill="#3b1a0e" fill-rule="evenodd"/>
    <path id="Caminho_3922" data-name="Caminho 3922" d="M627.786,60.827a34.288,34.288,0,0,0-4.239-2.254L610.954,82.264l-4.147-2.053L619.4,56.3A29.625,29.625,0,0,0,615,54.1L602.04,78.7c-2.1,4.128,2.181,5.177,4.809,6.619,7.2,3.955,6.3,3.219,12.255-8.116,2.636-5.007,6.359-11.516,8.683-16.372" transform="translate(185.132 27.159)" fill="#3b1a0e" fill-rule="evenodd"/>
    <path id="Caminho_3923" data-name="Caminho 3923" d="M562.449,80.371a2.3,2.3,0,0,1-.382.3l-1.33.745a9.119,9.119,0,0,1-1.933.9l-3.227-6.253-4.22,2.173c.455,1.492,2.254,4.318,3.012,5.807,3,5.9,4.4,3.358,10.641.206,2.117-1.068,3.8-2.34,2.242-5.249-3.59-6.688-2.415-6.638-8.521-9.015-2.153-.837-4.214-1.718-6.3-2.572-1.568-.644-1.715-.407-2.468-1.86a19.66,19.66,0,0,1-1.52-3.174l3.659-1.791,2.962,5.782a23.043,23.043,0,0,0,4.184-2.293c-.329-.962-3.682-7.545-4.624-8.139-2.407-1.515-5.757,1.2-9.009,2.937-2.513,1.342-3.272,2.443-1.71,5.517,3.135,6.17,2.281,5.545,8.867,8.248,2.089.859,3.986,1.693,6.136,2.53,1.47.572,1.381.946,2.056,2.27a28,28,0,0,1,1.481,2.931" transform="translate(80.682 29.652)" fill="#3b1a0e" fill-rule="evenodd"/>
    <path id="Caminho_3924" data-name="Caminho 3924" d="M629.551,66.779l3.219,2.862c-.533,1.127-6.585,7.469-7.748,8.777l-3.414,3.81c-.441.438-.65.77-1.04,1.23-.41.485-.8.77-1.213,1.258l-4.476,5.16a29.214,29.214,0,0,0,3.447,3.107c.778-.46,5.615-6.125,6.694-7.347.391-.441.731-.695,1.116-1.149l7.888-8.819a17.306,17.306,0,0,0,2.178-2.546c1.1.3,2.438,2.134,3.573,2.825.605-.329.349-.153.823-.72l2.109-2.468c-.343-.625-6.767-6.29-7.651-7.037-.973-.823-1.568-1.76-2.773-2.284-.734,1.252-2.112,2.137-2.731,3.341" transform="translate(209.106 43.863)" fill="#3b1a0e" fill-rule="evenodd"/>
    <path id="Caminho_3925" data-name="Caminho 3925" d="M590.882,48.9l-.9,4.111a17.936,17.936,0,0,0,3.425.837c.9.218.759.248,1,.516l-5.6,26.159,4.722.957,5.581-26.26c1.088-.148,3.051.661,4.4.7l1-4.281c-1.766-.485-12.777-3.015-13.622-2.736" transform="translate(162.462 17.813)" fill="#3b1a0e" fill-rule="evenodd"/>
    <path id="Caminho_3926" data-name="Caminho 3926" d="M558.882,52.177l.852,4.37,4.468-.869,5.638,26.358,4.661-.955L568.95,54.669l4.356-.931-.837-4.361Z" transform="translate(108.923 18.706)" fill="#3b1a0e" fill-rule="evenodd"/>
    <path id="Caminho_3927" data-name="Caminho 3927" d="M519.295,82.92a21.7,21.7,0,0,0,3.305,2.162l23.432,14.537a29.606,29.606,0,0,0,2.446-4.122l-26.6-16.545Z" transform="translate(38.095 71.618)" fill="#3b1a0e" fill-rule="evenodd"/>
    <path id="Caminho_3928" data-name="Caminho 3928" d="M575.754,79.4l4.784.017.03-31.392-4.791-.1Z" transform="translate(139.11 16.102)" fill="#3b1a0e" fill-rule="evenodd"/>
  </g>
</svg>
